<?xml version="1.0" encoding="UTF-8" standalone="no"?>
<svg width="58px" height="78px" viewBox="0 0 58 78" version="1.1" xmlns="http://www.w3.org/2000/svg" xmlns:xlink="http://www.w3.org/1999/xlink">
    <!-- Generator: Sketch 3.8.2 (29753) - http://www.bohemiancoding.com/sketch -->
    <title>Artists</title>
    <desc>Created with Sketch.</desc>
    <defs></defs>
    <g id="Page-1" stroke="none" stroke-width="1" fill="none" fill-rule="evenodd">
        <g id="Artboard" transform="translate(-215.000000, -755.000000)" fill="#F82645">
            <path d="M222.941237,808.761342 L224.22515,810.025241 L248.191518,787.555921 L240.012519,779.504414 L217.282511,803.190823 L218.89929,804.7824 L218.328662,805.344133 C216.141256,807.40382 215,810.118863 215,813.114773 C215,816.110682 216.23636,818.919347 218.328662,820.979035 L218.518872,821.166279 C220.611173,823.319589 223.369208,824.443055 226.412556,824.443055 C229.3608,824.443055 232.213939,823.225967 234.306241,821.166279 L244.006914,811.616818 C246.19432,809.463508 249.618087,809.463508 251.805494,811.616818 L252.185912,811.991307 C254.373319,814.144616 254.373319,817.515015 252.185912,819.668324 L243.341181,828.375186 L247.335576,832.307317 L256.370516,823.600455 C260.74533,819.293836 260.74533,812.272173 256.370516,807.965553 L255.990098,807.591065 C251.615285,803.284445 244.482437,803.284445 240.107624,807.591065 L230.311846,817.234148 C229.265695,818.263992 227.839126,818.825725 226.412556,818.825725 C224.985987,818.825725 223.559417,818.263992 222.513266,817.234148 L222.323057,817.046904 C221.276906,816.01706 220.706278,814.612727 220.706278,813.208395 C220.706278,811.71044 221.276906,810.39973 222.323057,809.369886 L222.941237,808.761342 Z M260.079597,780.534258 C267.212445,780.534258 272.918723,774.916928 272.918723,767.895265 C272.918723,760.873603 267.212445,755.256273 260.079597,755.256273 C252.94675,755.256273 247.240471,760.873603 247.240471,767.895265 L247.240471,767.988888 L260.079597,780.534258 Z M250.474029,785.683477 L241.724403,777.070238 L246.19432,770.516686 L257.131353,781.47048 L250.474029,785.683477 Z" id="Artists"></path>
        </g>
    </g>
</svg>